<?xml version="1.0" standalone="no"?><svg viewBox="0 0 640 640" xmlns="http://www.w3.org/2000/svg" xmlns:xlink="http://www.w3.org/1999/xlink"><style>:root>svg{display:none}:root>svg:target{display:block}</style><svg version="1.0" viewBox="0 0 480 480" id="fb" xmlns="http://www.w3.org/2000/svg"><path d="M113 14c0 .6-2.6 1-5.7 1-3.2 0-7.4.4-9.3.9-1.9.5-6.2 1.4-9.5 2.1-19 4.1-40.2 18.8-52.3 36.4C25 70.6 19.7 85.7 18.3 105.5c-.3 3.8-.9 7.5-1.4 8.1-1.2 1.5-1.1 253.1.1 253.9.6.3 1 3 1 5.9 0 5.6 3 20.9 5.6 29.1 4.2 12.6 15.4 29.9 25 38.4 6.3 5.5 16.8 13.1 18.3 13.1.6 0 1.1.7 1.1 1.5 0 .9.6 1.2 1.6.8.9-.3 1.9-.2 2.3.3.8 1.2 12.1 5.1 18.9 6.5 2.8.6 5.2 1.4 5.2 1.7 0 .4 2.5.7 5.5.7 3.1 0 5.9.5 6.3 1.1.9 1.4 5.2 2.5 5.2 1.3 0-.5 30.7-1 73.3-1.1l73.2-.3.3-90.3c.2-71.8 0-90.2-1-90.2h-27.3c-14.3 0-26.6-.4-27.3-.8-.9-.7-1.2-7-1-28.3l.3-27.4 28-.5 28-.5.5-40.5c.5-38.8.6-40.8 2.8-46.8 3.8-10.5 8.1-17.3 16.7-25.8 6.6-6.6 9.9-9 17.6-12.8 6-2.9 11.8-4.9 15.9-5.6 3.6-.5 20.3-1 37.2-1H381l.5 2.2c.3 1.3.4 12.6.3 25.3l-.3 23-17.5.6c-16.8.5-17.8.7-24.2 3.6-7.7 3.6-15 10-18.1 15.8-2.1 3.8-2.2 5.2-2.2 33v29l28 .5 28 .5v56l-28.2.3-28.3.2v90c0 71.2.3 90.1 1.3 90.5 2.2.7 42.5 1.1 42.1.3-.2-.4 1.7-.9 4.3-1.3 2.7-.3 8.9-1.4 13.8-2.4 5-1.1 9.1-1.5 9.3-1 .2.5.8.9 1.3.9.6 0 .8-.4.4-.9-.9-1.6 3-3.2 4.4-1.8 1 .9 1.1.9.7-.3-.4-1.1 1-2.2 4.7-3.9 23-10.7 42.3-34.6 49.2-60.7 4.3-16.5 4.5-21.7 4.5-153.7 0-126-.2-135.4-3.6-152.4-4.4-22.7-20-45.5-40.1-59.1-3.4-2.3-6.7-4.2-7.2-4.2-.6 0-1.1-.5-1.1-1 0-.6-.6-1-1.4-1-1.5 0-10.8-3.9-11.6-4.9-.3-.4-1.6-.7-3-.8-1.4 0-5.2-.6-8.5-1.3-3.3-.6-9.1-1.6-13-2.2C356 13.3 113 12.6 113 14z"/></svg><svg viewBox="0 0 512 512" id="instagram" xmlns="http://www.w3.org/2000/svg"><rect width="512" height="512" rx="15%"/><g stroke="#fff" stroke-width="36"><rect width="364" height="364" x="74" y="74" rx="92"/><circle cx="256" cy="256" r="85"/></g><circle cx="362" cy="150" r="24" fill="#fff"/></svg><svg version="1.0" viewBox="0 0 480 480" id="yt" xmlns="http://www.w3.org/2000/svg"><path d="M112 17.2c-17.6 2.4-25.1 4-31.5 6.8C66 30.1 59.7 34.1 50.1 43.4 35.2 57.8 26.4 73.8 23 92.5c-3.6 20.1-4 34.3-4 145.5 0 109.6.2 118.8 3.6 139.5 1.8 10.6 1.5 9.5 3.9 17 3.3 10.4 10.9 22.9 19.4 31.8 10.7 11.3 27.5 22.2 37.1 24.2 1.9.4 4 1.1 4.5 1.5.6.4 2.6 1 4.5 1.4 1.9.4 6.4 1.2 10 1.9 9.1 1.7 264.1 1.6 275 0 10.9-1.7 14.4-2.5 15.5-3.3.6-.4 2.4-1 4-1.4 4.5-1 15.2-6.4 22-10.9 7.5-5 18.7-16.4 24-24.2 3.9-5.7 9.4-16.2 9.9-18.8.2-.7.9-2.6 1.5-4.2 1.3-3 2.2-7.4 4.4-20 1.7-9.7 1.6-260.8-.1-271-1.2-7.6-2.5-14-4-19.5-2.9-11-15.1-30-25.4-39.5-7.4-6.9-20.4-15.5-23.3-15.5-.8 0-1.5-.4-1.5-.9 0-.7-2.2-1.4-6.8-2.2-.4 0-1.6-.6-2.7-1.2-1.1-.7-2.4-1.2-3-1.3-.5 0-1.7-.3-2.5-.7-1.8-.6-7.1-1.6-16.5-2.9-9-1.3-251.6-1.9-260.5-.6zm193.5 115.3c2.2.2 10.5.6 18.4 1 16.8.7 22.6 1.7 29.6 4.9 10.4 4.7 16.4 13 20.4 27.9 3.2 11.8 5.5 49.6 4.7 77.2-1.4 47.2-5 63.4-16.6 73.9-8.3 7.5-15.1 9.1-44.1 10.8-27.9 1.6-131 1.5-156.9-.1-29.2-1.9-37-3.8-45.5-11.2-9.5-8.4-12.8-19.7-15.6-53-1.1-13.6-.8-63.8.5-72.9.3-1.9 1-7.8 1.5-13 2.3-21.1 8.9-33 21.8-39.5 8.4-4.2 16-5 55.4-6.1 12.9-.4 23.6-.9 23.9-1.2.5-.5 95.6.6 102.5 1.3z"/><path d="M210.6 191.7c-.3.3-.6 17.7-.6 38.5 0 31.8.2 37.8 1.4 37.8.8 0 4.3-1.6 7.8-3.6 3.4-2 14.6-8.1 24.8-13.7 10.2-5.5 21.7-11.8 25.5-13.9 3.9-2.1 8.5-4.6 10.3-5.5 1.7-.9 3.2-1.9 3.2-2.2 0-.3-8.9-5.2-19.8-10.8-10.8-5.7-26.9-14.1-35.8-18.8-8.9-4.6-16.4-8.2-16.8-7.8z"/></svg></svg>